<svg width="88" height="88" viewBox="0 0 88 88" fill="none" xmlns="http://www.w3.org/2000/svg">
<g filter="url(#filter0_d_2_25)">
<path d="M43.8786 18.2163H43.8785C32.3476 18.2163 23 27.5639 23 39.0948V39.0949C23 50.6258 32.3476 59.9734 43.8785 59.9734H43.8786C55.4095 59.9734 64.7571 50.6258 64.7571 39.0949V39.0948C64.7571 27.5639 55.4095 18.2163 43.8786 18.2163Z" fill="#E3B873"/>
<path d="M43.8786 14.2163H43.8785C30.1385 14.2163 19 25.3548 19 39.0948V39.0949C19 52.8349 30.1385 63.9734 43.8785 63.9734H43.8786C57.6186 63.9734 68.7571 52.8349 68.7571 39.0949V39.0948C68.7571 25.3548 57.6186 14.2163 43.8786 14.2163Z" stroke="white" stroke-width="8"/>
</g>
<path d="M39.1042 46.1323C38.1322 46.1323 37.2502 45.8743 36.4582 45.3583C35.6662 44.8423 35.0362 44.0923 34.5682 43.1083C34.1122 42.1123 33.8842 40.9303 33.8842 39.5623C33.8842 38.1943 34.1122 37.0183 34.5682 36.0343C35.0362 35.0383 35.6662 34.2823 36.4582 33.7663C37.2502 33.2503 38.1322 32.9923 39.1042 32.9923C40.0762 32.9923 40.9582 33.2503 41.7502 33.7663C42.5422 34.2823 43.1662 35.0383 43.6222 36.0343C44.0902 37.0183 44.3242 38.1943 44.3242 39.5623C44.3242 40.9303 44.0902 42.1123 43.6222 43.1083C43.1662 44.0923 42.5422 44.8423 41.7502 45.3583C40.9582 45.8743 40.0762 46.1323 39.1042 46.1323ZM39.1042 45.7723C40.4842 45.7723 41.1742 43.7023 41.1742 39.5623C41.1742 35.4223 40.4842 33.3523 39.1042 33.3523C37.7242 33.3523 37.0342 35.4223 37.0342 39.5623C37.0342 43.7023 37.7242 45.7723 39.1042 45.7723ZM49.3628 45.8623V45.5923L50.6228 45.2323V42.5323H45.4928L45.1328 41.9923L51.8828 33.0823H53.5928V41.7223H55.4828V42.5323H53.5928V45.2323L54.8528 45.5923V45.8623H49.3628ZM46.1228 41.7223H50.6228V35.7823L46.1228 41.7223Z" fill="white"/>
<defs>
<filter id="filter0_d_2_25" x="0" y="0.216301" width="87.7571" height="87.7571" filterUnits="userSpaceOnUse" color-interpolation-filters="sRGB">
<feFlood flood-opacity="0" result="BackgroundImageFix"/>
<feColorMatrix in="SourceAlpha" type="matrix" values="0 0 0 0 0 0 0 0 0 0 0 0 0 0 0 0 0 0 127 0" result="hardAlpha"/>
<feOffset dy="5"/>
<feGaussianBlur stdDeviation="7.5"/>
<feColorMatrix type="matrix" values="0 0 0 0 0.890196 0 0 0 0 0.721569 0 0 0 0 0.45098 0 0 0 0.15 0"/>
<feBlend mode="normal" in2="BackgroundImageFix" result="effect1_dropShadow_2_25"/>
<feBlend mode="normal" in="SourceGraphic" in2="effect1_dropShadow_2_25" result="shape"/>
</filter>
</defs>
</svg>
