<svg width="88" height="88" viewBox="0 0 88 88" fill="none" xmlns="http://www.w3.org/2000/svg">
<g filter="url(#filter0_d_1_8)">
<path d="M43.8786 18.2163H43.8785C32.3476 18.2163 23 27.5639 23 39.0948V39.0949C23 50.6258 32.3476 59.9734 43.8785 59.9734H43.8786C55.4095 59.9734 64.7571 50.6258 64.7571 39.0949V39.0948C64.7571 27.5639 55.4095 18.2163 43.8786 18.2163Z" fill="#E3B873"/>
<path d="M43.8786 14.2163H43.8785C30.1385 14.2163 19 25.3548 19 39.0948V39.0949C19 52.8349 30.1385 63.9734 43.8785 63.9734H43.8786C57.6186 63.9734 68.7571 52.8349 68.7571 39.0949V39.0948C68.7571 25.3548 57.6186 14.2163 43.8786 14.2163Z" stroke="white" stroke-width="8"/>
</g>
<path d="M39.5727 45.27C38.6007 45.27 37.7187 45.012 36.9267 44.496C36.1347 43.98 35.5047 43.23 35.0367 42.246C34.5807 41.25 34.3527 40.068 34.3527 38.7C34.3527 37.332 34.5807 36.156 35.0367 35.172C35.5047 34.176 36.1347 33.42 36.9267 32.904C37.7187 32.388 38.6007 32.13 39.5727 32.13C40.5447 32.13 41.4267 32.388 42.2187 32.904C43.0107 33.42 43.6347 34.176 44.0907 35.172C44.5587 36.156 44.7927 37.332 44.7927 38.7C44.7927 40.068 44.5587 41.25 44.0907 42.246C43.6347 43.23 43.0107 43.98 42.2187 44.496C41.4267 45.012 40.5447 45.27 39.5727 45.27ZM39.5727 44.91C40.9527 44.91 41.6427 42.84 41.6427 38.7C41.6427 34.56 40.9527 32.49 39.5727 32.49C38.1927 32.49 37.5027 34.56 37.5027 38.7C37.5027 42.84 38.1927 44.91 39.5727 44.91ZM46.8613 45V44.73L48.1213 44.37V34.488L46.2313 35.82L45.8713 35.37L49.1473 32.4H51.0913V44.37L52.3513 44.73V45H46.8613Z" fill="white"/>
<defs>
<filter id="filter0_d_1_8" x="0" y="0.216293" width="87.7571" height="87.7571" filterUnits="userSpaceOnUse" color-interpolation-filters="sRGB">
<feFlood flood-opacity="0" result="BackgroundImageFix"/>
<feColorMatrix in="SourceAlpha" type="matrix" values="0 0 0 0 0 0 0 0 0 0 0 0 0 0 0 0 0 0 127 0" result="hardAlpha"/>
<feOffset dy="5"/>
<feGaussianBlur stdDeviation="7.5"/>
<feColorMatrix type="matrix" values="0 0 0 0 0.890196 0 0 0 0 0.721569 0 0 0 0 0.45098 0 0 0 0.15 0"/>
<feBlend mode="normal" in2="BackgroundImageFix" result="effect1_dropShadow_1_8"/>
<feBlend mode="normal" in="SourceGraphic" in2="effect1_dropShadow_1_8" result="shape"/>
</filter>
</defs>
</svg>
