<svg width="88" height="88" viewBox="0 0 88 88" fill="none" xmlns="http://www.w3.org/2000/svg">
<g filter="url(#filter0_d_2_20)">
<path d="M43.8786 18.2163H43.8785C32.3476 18.2163 23 27.5639 23 39.0948V39.0949C23 50.6258 32.3476 59.9734 43.8785 59.9734H43.8786C55.4095 59.9734 64.7571 50.6258 64.7571 39.0949V39.0948C64.7571 27.5639 55.4095 18.2163 43.8786 18.2163Z" fill="#E3B873"/>
<path d="M43.8786 14.2163H43.8785C30.1385 14.2163 19 25.3548 19 39.0948V39.0949C19 52.8349 30.1385 63.9734 43.8785 63.9734H43.8786C57.6186 63.9734 68.7571 52.8349 68.7571 39.0949V39.0948C68.7571 25.3548 57.6186 14.2163 43.8786 14.2163Z" stroke="white" stroke-width="8"/>
</g>
<path d="M39.2361 46.1323C38.2641 46.1323 37.3821 45.8743 36.5901 45.3583C35.7981 44.8423 35.1681 44.0923 34.7001 43.1083C34.2441 42.1123 34.0161 40.9303 34.0161 39.5623C34.0161 38.1943 34.2441 37.0183 34.7001 36.0343C35.1681 35.0383 35.7981 34.2823 36.5901 33.7663C37.3821 33.2503 38.2641 32.9923 39.2361 32.9923C40.2081 32.9923 41.0901 33.2503 41.8821 33.7663C42.6741 34.2823 43.2981 35.0383 43.7541 36.0343C44.2221 37.0183 44.4561 38.1943 44.4561 39.5623C44.4561 40.9303 44.2221 42.1123 43.7541 43.1083C43.2981 44.0923 42.6741 44.8423 41.8821 45.3583C41.0901 45.8743 40.2081 46.1323 39.2361 46.1323ZM39.2361 45.7723C40.6161 45.7723 41.3061 43.7023 41.3061 39.5623C41.3061 35.4223 40.6161 33.3523 39.2361 33.3523C37.8561 33.3523 37.1661 35.4223 37.1661 39.5623C37.1661 43.7023 37.8561 45.7723 39.2361 45.7723ZM49.5846 46.1323C48.7566 46.1323 48.0486 46.0183 47.4606 45.7903C46.8846 45.5623 46.4466 45.2683 46.1466 44.9083C45.8586 44.5483 45.7146 44.1763 45.7146 43.7923C45.7146 43.3843 45.8346 43.0603 46.0746 42.8203C46.3266 42.5683 46.6566 42.4423 47.0646 42.4423C47.1606 42.4423 47.2566 42.4543 47.3526 42.4783C47.4486 42.4903 47.5146 42.4963 47.5506 42.4963L47.7846 42.5323V45.4123C47.7966 45.4123 47.9226 45.4603 48.1626 45.5563C48.4746 45.6403 48.8286 45.6823 49.2246 45.6823C50.0646 45.6823 50.7066 45.4303 51.1506 44.9263C51.6066 44.4103 51.8346 43.6423 51.8346 42.6223C51.8346 41.5783 51.6126 40.7923 51.1686 40.2643C50.7366 39.7363 50.1486 39.4723 49.4046 39.4723H48.5046V39.0223H49.4046C49.9446 39.0223 50.3946 38.7823 50.7546 38.3023C51.1146 37.8223 51.2946 37.1323 51.2946 36.2323C51.2946 35.3323 51.1086 34.6423 50.7366 34.1623C50.3646 33.6823 49.8906 33.4423 49.3146 33.4423C49.0026 33.4423 48.7026 33.4903 48.4146 33.5863C48.3786 33.5983 48.2586 33.6403 48.0546 33.7123V36.5923L47.8206 36.6463C47.6286 36.6703 47.4666 36.6823 47.3346 36.6823C46.9266 36.6823 46.5966 36.5623 46.3446 36.3223C46.1046 36.0703 45.9846 35.7403 45.9846 35.3323C45.9846 34.9603 46.1286 34.5943 46.4166 34.2343C46.7046 33.8743 47.1246 33.5803 47.6766 33.3523C48.2406 33.1123 48.9066 32.9923 49.6746 32.9923C50.6826 32.9923 51.5346 33.1423 52.2306 33.4423C52.9386 33.7303 53.4666 34.1203 53.8146 34.6123C54.1746 35.1043 54.3546 35.6443 54.3546 36.2323C54.3546 36.9163 54.1806 37.4623 53.8326 37.8703C53.4846 38.2663 53.0286 38.5843 52.4646 38.8243C51.9126 39.0403 51.2826 39.1663 50.5746 39.2023V39.2923C51.3666 39.3283 52.0866 39.4663 52.7346 39.7063C54.1746 40.2823 54.8946 41.2543 54.8946 42.6223C54.8946 43.6783 54.4566 44.5303 53.5806 45.1783C52.7166 45.8143 51.3846 46.1323 49.5846 46.1323Z" fill="white"/>
<defs>
<filter id="filter0_d_2_20" x="0" y="0.216293" width="87.7571" height="87.7571" filterUnits="userSpaceOnUse" color-interpolation-filters="sRGB">
<feFlood flood-opacity="0" result="BackgroundImageFix"/>
<feColorMatrix in="SourceAlpha" type="matrix" values="0 0 0 0 0 0 0 0 0 0 0 0 0 0 0 0 0 0 127 0" result="hardAlpha"/>
<feOffset dy="5"/>
<feGaussianBlur stdDeviation="7.5"/>
<feColorMatrix type="matrix" values="0 0 0 0 0.890196 0 0 0 0 0.721569 0 0 0 0 0.45098 0 0 0 0.15 0"/>
<feBlend mode="normal" in2="BackgroundImageFix" result="effect1_dropShadow_2_20"/>
<feBlend mode="normal" in="SourceGraphic" in2="effect1_dropShadow_2_20" result="shape"/>
</filter>
</defs>
</svg>
