<svg width="88" height="88" viewBox="0 0 88 88" fill="none" xmlns="http://www.w3.org/2000/svg">
<g filter="url(#filter0_d_1_16)">
<path d="M43.8786 18.2163H43.8785C32.3476 18.2163 23 27.5639 23 39.0948V39.0949C23 50.6258 32.3476 59.9734 43.8785 59.9734H43.8786C55.4095 59.9734 64.7571 50.6258 64.7571 39.0949V39.0948C64.7571 27.5639 55.4095 18.2163 43.8786 18.2163Z" fill="#E3B873"/>
<path d="M43.8786 14.2163H43.8785C30.1385 14.2163 19 25.3548 19 39.0948V39.0949C19 52.8349 30.1385 63.9734 43.8785 63.9734H43.8786C57.6186 63.9734 68.7571 52.8349 68.7571 39.0949V39.0948C68.7571 25.3548 57.6186 14.2163 43.8786 14.2163Z" stroke="white" stroke-width="8"/>
</g>
<path d="M38.4708 45.7517C37.4988 45.7517 36.6168 45.4937 35.8248 44.9777C35.0328 44.4617 34.4028 43.7117 33.9348 42.7277C33.4788 41.7317 33.2508 40.5497 33.2508 39.1817C33.2508 37.8137 33.4788 36.6377 33.9348 35.6537C34.4028 34.6577 35.0328 33.9017 35.8248 33.3857C36.6168 32.8697 37.4988 32.6117 38.4708 32.6117C39.4428 32.6117 40.3248 32.8697 41.1168 33.3857C41.9088 33.9017 42.5328 34.6577 42.9888 35.6537C43.4568 36.6377 43.6908 37.8137 43.6908 39.1817C43.6908 40.5497 43.4568 41.7317 42.9888 42.7277C42.5328 43.7117 41.9088 44.4617 41.1168 44.9777C40.3248 45.4937 39.4428 45.7517 38.4708 45.7517ZM38.4708 45.3917C39.8508 45.3917 40.5408 43.3217 40.5408 39.1817C40.5408 35.0417 39.8508 32.9717 38.4708 32.9717C37.0908 32.9717 36.4008 35.0417 36.4008 39.1817C36.4008 43.3217 37.0908 45.3917 38.4708 45.3917ZM45.0394 44.6717C45.0394 43.9637 45.1774 43.3217 45.4534 42.7457C45.7414 42.1577 46.0894 41.6477 46.4974 41.2157C46.9054 40.7837 47.4394 40.2737 48.0994 39.6857C48.7114 39.1457 49.1914 38.6957 49.5394 38.3357C49.8874 37.9637 50.1814 37.5497 50.4214 37.0937C50.6614 36.6257 50.7814 36.1217 50.7814 35.5817C50.7814 34.7897 50.5894 34.1717 50.2054 33.7277C49.8214 33.2837 49.3234 33.0617 48.7114 33.0617C48.3634 33.0617 48.0094 33.1097 47.6494 33.2057L47.2714 33.3317V36.2117L47.0374 36.2657C46.8454 36.2897 46.6834 36.3017 46.5514 36.3017C46.1434 36.3017 45.8134 36.1817 45.5614 35.9417C45.3214 35.6897 45.2014 35.3597 45.2014 34.9517C45.2014 34.5677 45.3454 34.1957 45.6334 33.8357C45.9334 33.4757 46.3714 33.1817 46.9474 32.9537C47.5354 32.7257 48.2434 32.6117 49.0714 32.6117C50.6914 32.6117 51.8914 32.9357 52.6714 33.5837C53.4514 34.2317 53.8414 35.1377 53.8414 36.3017C53.8414 37.0337 53.6494 37.6637 53.2654 38.1917C52.8934 38.7197 52.4314 39.1577 51.8794 39.5057C51.3394 39.8537 50.6134 40.2497 49.7014 40.6937C48.9334 41.0657 48.3094 41.3957 47.8294 41.6837C47.3614 41.9597 46.9234 42.2957 46.5154 42.6917C46.1194 43.0877 45.8374 43.5377 45.6694 44.0417H52.3294C52.4134 43.3937 52.6174 42.8537 52.9414 42.4217C53.0734 42.2177 53.2294 42.0377 53.4094 41.8817H53.9494V45.4817H45.0394V44.6717Z" fill="white"/>
<defs>
<filter id="filter0_d_1_16" x="0" y="0.216293" width="87.7571" height="87.7571" filterUnits="userSpaceOnUse" color-interpolation-filters="sRGB">
<feFlood flood-opacity="0" result="BackgroundImageFix"/>
<feColorMatrix in="SourceAlpha" type="matrix" values="0 0 0 0 0 0 0 0 0 0 0 0 0 0 0 0 0 0 127 0" result="hardAlpha"/>
<feOffset dy="5"/>
<feGaussianBlur stdDeviation="7.5"/>
<feColorMatrix type="matrix" values="0 0 0 0 0.890196 0 0 0 0 0.721569 0 0 0 0 0.45098 0 0 0 0.15 0"/>
<feBlend mode="normal" in2="BackgroundImageFix" result="effect1_dropShadow_1_16"/>
<feBlend mode="normal" in="SourceGraphic" in2="effect1_dropShadow_1_16" result="shape"/>
</filter>
</defs>
</svg>
